<mxfile host="app.diagrams.net" modified="2023-07-26T14:15:22.885Z" agent="Mozilla/5.0 (Windows NT 10.0; Win64; x64) AppleWebKit/537.36 (KHTML, like Gecko) Chrome/114.0.0.0 Safari/537.36" version="21.6.5" etag="StRMDKvljy-AeIY8n7cj" type="github">
  <diagram name="Page-1" id="28wtkJO0IDi1d5jMJ_gI">
    <mxGraphModel>
      <root>
        <mxCell id="0" />
        <mxCell id="1" parent="0" />
      </root>
    </mxGraphModel>
  </diagram>
</mxfile>
